# xmcd
#
# Track frame offsets:
#	150
#	15728
#	32239
#	48346
#	68671
#
# Disc length: 1177 seconds
#
# Revision: 1
# Processed by: cddbd v1.5.2PL0 Copyright (c) Steve Scherf et al.
# Submitted via: audiograbber 1.83.01
#
DISCID=39049705
DTITLE=Colin Amey - Just Do What You Do
DYEAR=2013
DGENRE=Country
TTITLE0=Go for a Soda
TTITLE1=Life Happens
TTITLE2=The World Will Come Around
TTITLE3=Effortless
TTITLE4=Somebody Loves Him
EXTD=
EXTT0=
EXTT1=
EXTT2=
EXTT3=
EXTT4=
PLAYORDER=
